<?xml version="1.0" standalone="no"?><!DOCTYPE svg PUBLIC "-//W3C//DTD SVG 1.1//EN" "http://www.w3.org/Graphics/SVG/1.1/DTD/svg11.dtd"><svg t="1586504537479" class="icon" viewBox="0 0 1024 1024" version="1.1" xmlns="http://www.w3.org/2000/svg" p-id="2254" xmlns:xlink="http://www.w3.org/1999/xlink" width="200" height="200"><defs><style type="text/css">@font-face { font-family: rbicon; src: url("chrome-extension://dipiagiiohfljcicegpgffpbnjmgjcnf/fonts/rbicon.woff2") format("woff2"); font-weight: normal; font-style: normal; }
</style></defs><path d="M640 384c16 0 33.6 1.6 48 4.8l112-132.8-64-96H544l-64 96 112 132.8c14.4-3.2 32-4.8 48-4.8z" fill="#EFF7FC" p-id="2255"></path><path d="M640 384c16 0 33.6 1.6 48 4.8l112-132.8H480l112 132.8c14.4-3.2 32-4.8 48-4.8z" fill="#D0E3F4" p-id="2256"></path><path d="M640 160l-64 96h128zM544 160l-64 96h96zM736 160l-32 96h96z" fill="#E2EFFA" p-id="2257"></path><path d="M640 384c6.4 0 14.4 0 20.8 1.6L704 256h-128l43.2 129.6c6.4-1.6 14.4-1.6 20.8-1.6z" fill="#C5DDF3" p-id="2258"></path><path d="M688 388.8l112-132.8h-96l-43.2 129.6c9.6 0 19.2 1.6 27.2 3.2z" fill="#BCD8F1" p-id="2259"></path><path d="M712 361.6l35.2-41.6H532.8c16 19.2 27.2 32 35.2 41.6-19.2 6.4-38.4 14.4-56 24-38.4-22.4-81.6-35.2-128-35.2-140.8 0-256 115.2-256 256s115.2 256 256 256c46.4 0 89.6-12.8 128-35.2 38.4 22.4 81.6 35.2 128 35.2 140.8 0 256-115.2 256-256 0-115.2-78.4-212.8-184-244.8zM384 800c-105.6 0-192-86.4-192-192s86.4-192 192-192c25.6 0 49.6 4.8 72 14.4C411.2 476.8 384 539.2 384 608s27.2 131.2 72 177.6c-22.4 9.6-46.4 14.4-72 14.4z m128-49.6c-40-35.2-64-86.4-64-142.4 0-57.6 25.6-107.2 64-142.4 38.4 35.2 64 86.4 64 142.4 0 57.6-25.6 107.2-64 142.4z m128 49.6c-25.6 0-49.6-4.8-72-14.4C612.8 739.2 640 676.8 640 608s-27.2-131.2-72-177.6c20.8-8 51.2-14.4 72-14.4 105.6 0 192 86.4 192 192s-86.4 192-192 192z" fill="#DBE2E8" p-id="2260"></path><path d="M512 387.2c-16-9.6-33.6-17.6-51.2-22.4-20.8 16-40 33.6-56 52.8 17.6 1.6 35.2 6.4 52.8 12.8 14.4-17.6 33.6-32 54.4-43.2zM512 465.6c11.2 11.2 22.4 22.4 32 36.8 16-14.4 35.2-25.6 56-30.4-9.6-14.4-19.2-27.2-32-40-20.8 8-40 19.2-56 33.6zM512 828.8c16 9.6 33.6 17.6 51.2 22.4 20.8-16 40-33.6 56-52.8-17.6-1.6-35.2-6.4-52.8-12.8-14.4 17.6-33.6 32-54.4 43.2zM480 713.6c-16 14.4-35.2 25.6-56 30.4 9.6 14.4 20.8 27.2 32 40 20.8-8 40-20.8 56-35.2-11.2-9.6-22.4-20.8-32-35.2z" fill="#BECCD6" p-id="2261"></path><path d="M688 388.8l57.6-68.8h-64l-22.4 65.6c11.2 0 20.8 1.6 28.8 3.2z" fill="#AABDC8" p-id="2262"></path><path d="M672 353.6l11.2-33.6h-84.8c27.2 80 24 73.6 32 96h11.2c104 0 192 84.8 192 192v9.6l56 56c4.8-20.8 9.6-43.2 9.6-65.6-3.2-131.2-100.8-238.4-227.2-254.4z" fill="#BECCD6" p-id="2263"></path></svg>